# xmcd
#
# Track frame offsets:
#	150
#	17645
#	37497
#	54697
#	71402
#	92287
#	107770
#	125535
#	144552
#	162072
#	178987
#	191665
#	207677
#	219727
#	231652
#	246292
#	262260
#	278545
#	297680
#	314197
#	329577
#
# Disc length: 4724 seconds
#
# Revision: 0
# Processed by: cddbd v1.4PL0 Copyright (c) Steve Scherf et al.
# Submitted via: EasyCDDAExtractor 4.6.0.1
#
DISCID=64127215
DTITLE=Various Artist - Heart Full Of Soul 2 - CD 1
DYEAR=1900
DGENRE=Soul
TTITLE0=Don't Leave Me This Way
TTITLE1=Endless Love
TTITLE2=Let's Get It On
TTITLE3=Cherish
TTITLE4=Just The Way You Are
TTITLE5=I Wanna Get Next To You
TTITLE6=Just The Two Of Us
TTITLE7=Easy
TTITLE8=Being With You
TTITLE9=Just my Imagination (Running Away With Me)
TTITLE10=Tired Of Being Alone
TTITLE11=You're All I Need To Get By
TTITLE12=(Sittin' On) The Dock Of The Bay
TTITLE13=Private Number
TTITLE14=If You're Ready (Come Go With Me)
TTITLE15=Baby Come To Me
TTITLE16=After The Love Has Gone
TTITLE17=If Only For One Night
TTITLE18=How 'Bout Us
TTITLE19=Oh Girl
TTITLE20=Love Won't Let Me Wait
EXTD=
EXTT0=
EXTT1=
EXTT2=
EXTT3=
EXTT4=
EXTT5=
EXTT6=
EXTT7=
EXTT8=
EXTT9=
EXTT10=
EXTT11=
EXTT12=
EXTT13=
EXTT14=
EXTT15=
EXTT16=
EXTT17=
EXTT18=
EXTT19=
EXTT20=
PLAYORDER=
